# xmcd
#
# Track frame offsets:
#	150
#	20940
#	40888
#	69968
#	93329
#	126836
#	148507
#	168813
#	190410
#	217443
#	243212
#
# Disc length: 3464 seconds
#
# Revision: 1
# Processed by: cddbd v1.5.2PL0 Copyright (c) Steve Scherf et al.
# Submitted via: EZCDAudioConverter 1.3.4.1
#
DISCID=a00d860b
DTITLE=Popa Chubby - Back To New York City
DYEAR=2011
DGENRE=Blues
TTITLE0=Back To New York City
TTITLE1=She Loves Everybody But Me
TTITLE2=Pound Of Flesh
TTITLE3=Warrier God
TTITLE4=The Future
TTITLE5=It's About You
TTITLE6=A Love That Will Not Die
TTITLE7=Keep Your Wood Pile Dry
TTITLE8=Stand Before The Sun
TTITLE9=She Made Me Beg For It
TTITLE10=Jesus Joy Of Man Desire
EXTD=
EXTT0=
EXTT1=
EXTT2=
EXTT3=
EXTT4=
EXTT5=
EXTT6=
EXTT7=
EXTT8=
EXTT9=
EXTT10=
PLAYORDER=
